<svg width="40" height="40" viewBox="0 0 40 40" fill="none" xmlns="http://www.w3.org/2000/svg">
<g clip-path="url(#clip0_6628_32909)">
<path d="M19.9998 39.9998C31.0453 39.9998 39.9995 31.0454 39.9995 19.9998C39.9995 8.95406 31.0453 -0.000244141 19.9998 -0.000244141C8.9542 -0.000244141 0 8.95406 0 19.9998C0 31.0454 8.9542 39.9998 19.9998 39.9998Z" fill="#FBFBFB"/>
<path d="M30.2156 21.4835L26.7942 15.5571C26.7223 15.4325 26.5894 15.3558 26.4457 15.3558H19.603C19.4593 15.3558 19.3264 15.4326 19.2545 15.5571L15.8332 21.4835C15.7613 21.6081 15.7613 21.7615 15.8332 21.886L19.2545 27.8124C19.3264 27.937 19.4592 28.0137 19.603 28.0137H26.4457C26.5894 28.0137 26.7223 27.9369 26.7942 27.8124L30.2156 21.886C30.2875 21.7615 30.2875 21.608 30.2156 21.4835Z" fill="black"/>
<path d="M33.8281 34.4707H30.2103L27.9561 38.3757C30.1441 37.4257 32.1294 36.097 33.8281 34.4707Z" fill="black"/>
<path d="M39.3661 25.0347C39.7797 23.4323 40 21.7522 40 20.0204C40 19.1694 39.9464 18.3309 39.8433 17.5078L37.4321 21.6846L39.3661 25.0347Z" fill="black"/>
<path d="M27.2467 1.37244L26.5562 2.56868L30.2098 8.89759H36.6242C34.3591 5.51822 31.0914 2.86814 27.2467 1.37244Z" fill="black"/>
<path d="M8.53138 8.89798H15.8386L19.4924 2.56907L18.0734 0.110962C13.6104 0.537731 9.57588 2.43098 6.45654 5.30394L8.53138 8.89798Z" fill="black"/>
<path d="M19.0297 39.9985L15.8385 34.4707H8.53111L7.74707 35.829C10.8935 38.2718 14.7882 39.796 19.0297 39.9985Z" fill="black"/>
<path d="M4.98114 15.3557H0.548137C0.190576 16.8525 0 18.4141 0 20.0205C0 22.8626 0.593949 25.5653 1.66245 28.0136H4.98114L8.63493 21.6847L4.98114 15.3557Z" fill="black"/>
<path d="M9.46373 18.356C9.46373 8.65436 17.6277 0.881032 27.4355 1.41304C14.3222 -3.75247 0 5.87859 0 20.01C0 31.0502 8.9826 40.0001 20.0631 40.0001C26.289 40.0001 31.8524 37.1744 35.5324 32.7401C24.2673 39.7816 9.46373 31.7206 9.46373 18.356Z" fill="black" fill-opacity="0.04"/>
</g>
<defs>
<clipPath id="clip0_6628_32909">
<rect width="40" height="40" fill="white"/>
</clipPath>
</defs>
</svg>
