<svg width="40" height="40" viewBox="0 0 40 40" fill="none" xmlns="http://www.w3.org/2000/svg">
<g clip-path="url(#clip0_6628_32895)">
<g clip-path="url(#clip1_6628_32895)">
<g clip-path="url(#clip2_6628_32895)">
<rect y="0.00012207" width="40" height="40" rx="20" fill="#FF0000"/>
<path d="M19.7001 40.4012C30.925 40.4012 40.0247 31.2201 40.0247 19.8945C40.0247 8.56898 30.925 -0.612183 19.7001 -0.612183C8.47512 -0.612183 -0.624512 8.56898 -0.624512 19.8945C-0.624512 31.2201 8.47512 40.4012 19.7001 40.4012Z" fill="#1A49E0"/>
<path d="M30.0081 8.2255L26.5696 2.19735C26.4974 2.07065 26.3639 1.99268 26.2194 1.99268H19.3427C19.1983 1.99268 19.0647 2.07073 18.9925 2.19735L15.5542 8.2255C15.4819 8.3522 15.4819 8.50823 15.5542 8.63485L18.9925 14.663C19.0647 14.7897 19.1982 14.8677 19.3427 14.8677H26.2194C26.3638 14.8677 26.4974 14.7896 26.5696 14.663L30.0081 8.63485C30.0803 8.50823 30.0803 8.35212 30.0081 8.2255Z" fill="#FFE22A"/>
<path d="M19.1996 28.0744L15.7075 21.8865C15.6341 21.7564 15.4978 21.676 15.3498 21.6753L8.30931 21.6431C8.16144 21.6424 8.0243 21.7217 7.94973 21.851L4.40132 28.0067C4.32675 28.1361 4.32602 28.2959 4.3994 28.4259L7.8914 34.6138C7.96479 34.7438 8.10111 34.8243 8.24907 34.825L15.2896 34.8571C15.4374 34.8578 15.5746 34.7785 15.6491 34.6492L19.1977 28.4935C19.2723 28.3642 19.273 28.2044 19.1996 28.0744Z" fill="#FFE22A"/>
<path d="M41.1334 27.9663L37.7038 21.5981C37.6317 21.4642 37.4972 21.3812 37.3509 21.3801L30.3899 21.3264C30.2437 21.3253 30.1078 21.4063 30.0336 21.539L26.5021 27.8534C26.4279 27.9862 26.4266 28.1503 26.4986 28.2841L29.9281 34.6522C30.0002 34.7861 30.1347 34.8691 30.2809 34.8702L37.242 34.9239C37.3882 34.9251 37.5241 34.844 37.5983 34.7113L41.1299 28.3969C41.2042 28.2642 41.2055 28.1 41.1334 27.9663Z" fill="#FFE22A"/>
<path d="M33.7521 34.823H30.0755L27.7847 38.8395C30.0082 37.8624 32.0258 36.4958 33.7521 34.823Z" fill="#FFE22A"/>
<path d="M39.3804 25.1175C39.8007 23.4693 40.0246 21.7412 40.0246 19.96C40.0246 19.0846 39.9702 18.2222 39.8653 17.3756L37.415 21.6717L39.3804 25.1175Z" fill="#FFE22A"/>
<path d="M27.0646 0.779297L26.3628 2.0097L30.0758 8.51937H36.5943C34.2924 5.04348 30.9717 2.31772 27.0646 0.779297Z" fill="#FFE22A"/>
<path d="M8.04506 8.52003H15.471L19.1841 2.01037L17.742 -0.517944C13.2066 -0.0789864 9.10653 1.86833 5.93652 4.82335L8.04506 8.52003Z" fill="#FFE22A"/>
<path d="M11.8917 8.51991C13.643 5.88558 16.0853 3.76152 18.9551 2.41194L19.1842 2.01025L17.742 -0.518066C17.5786 -0.461002 11.4215 -0.289891 5.93652 4.82322L8.04506 8.51991H11.8917Z" fill="#FFE22A"/>
<path d="M18.7139 40.5087L15.4708 34.823H8.04482L7.24805 36.22C10.4456 38.7326 14.4036 40.3004 18.7139 40.5087Z" fill="#FFE22A"/>
<path d="M4.43704 15.1619H-0.0679602C-0.431329 16.7014 -0.625 18.3076 -0.625 19.9599C-0.625 22.8831 -0.0214039 25.6631 1.06445 28.1813H4.43704L8.15018 21.6716L4.43704 15.1619Z" fill="#FFE22A"/>
</g>
<path d="M9.46373 18.3561C9.46373 8.65448 17.6277 0.881154 27.4355 1.41316C14.3222 -3.75234 0 5.87871 0 20.0102C0 31.0503 8.9826 40.0002 20.0631 40.0002C26.289 40.0002 31.8524 37.1745 35.5324 32.7402C24.2673 39.7818 9.46373 31.7207 9.46373 18.3561Z" fill="black" fill-opacity="0.04"/>
</g>
</g>
<defs>
<clipPath id="clip0_6628_32895">
<rect width="40" height="40" fill="white"/>
</clipPath>
<clipPath id="clip1_6628_32895">
<rect y="0.00012207" width="40" height="40" rx="20" fill="white"/>
</clipPath>
<clipPath id="clip2_6628_32895">
<rect y="0.00012207" width="40" height="40" rx="20" fill="white"/>
</clipPath>
</defs>
</svg>
