<svg width="71" height="26" viewBox="0 0 71 26" fill="none" xmlns="http://www.w3.org/2000/svg">
<path opacity="0.95" d="M46.6749 18.2166C45.9531 18.2092 45.2453 18.4165 44.6415 18.8121C44.0377 19.2077 43.5651 19.7739 43.2837 20.4386C43.0023 21.1034 42.9248 21.8368 43.0611 22.5457C43.1973 23.2546 43.5412 23.907 44.049 24.4201C44.5568 24.9332 45.2056 25.2838 45.9131 25.4273C46.6205 25.5709 47.3547 25.501 48.0223 25.2265C48.69 24.952 49.261 24.4853 49.6628 23.8856C50.0647 23.2859 50.2793 22.5803 50.2793 21.8585C50.2818 21.3827 50.1905 20.911 50.0107 20.4705C49.8309 20.03 49.5661 19.6292 49.2314 19.291C48.8967 18.9529 48.4987 18.6839 48.06 18.4996C47.6214 18.3152 47.1507 18.2191 46.6749 18.2166Z" fill="#3AAA35"/>
<path d="M54.1229 18.2166C53.401 18.2092 52.6932 18.4165 52.0894 18.8122C51.4855 19.2079 51.0129 19.7741 50.7316 20.439C50.4502 21.1038 50.3728 21.8373 50.5092 22.5462C50.6456 23.2552 50.9896 23.9076 51.4975 24.4206C52.0054 24.9336 52.6544 25.2841 53.3619 25.4275C54.0695 25.5709 54.8037 25.5008 55.4713 25.2261C56.1389 24.9514 56.7098 24.4844 57.1115 23.8846C57.5132 23.2847 57.7275 22.579 57.7273 21.857C57.7319 20.8964 57.3548 19.9732 56.6789 19.2905C56.003 18.6079 55.0836 18.2216 54.1229 18.2166Z" fill="#3AAA35"/>
<path opacity="0.55" d="M16.8798 18.2166C16.1579 18.2092 15.4502 18.4165 14.8464 18.8121C14.2426 19.2077 13.7699 19.7739 13.4885 20.4386C13.2071 21.1034 13.1296 21.8368 13.2659 22.5457C13.4022 23.2546 13.746 23.907 14.2538 24.4201C14.7616 24.9332 15.4104 25.2838 16.1179 25.4273C16.8253 25.5709 17.5595 25.501 18.2272 25.2265C18.8948 24.952 19.4658 24.4853 19.8677 23.8856C20.2695 23.2859 20.4841 22.5803 20.4841 21.8585C20.4887 20.8977 20.1117 19.9744 19.4358 19.2915C18.7599 18.6086 17.8406 18.222 16.8798 18.2166Z" fill="#3AAA35"/>
<path opacity="0.65" d="M24.3295 18.2166C23.6076 18.2092 22.8998 18.4165 22.2959 18.8122C21.6921 19.2079 21.2195 19.7741 20.9381 20.439C20.6567 21.1038 20.5793 21.8373 20.7157 22.5462C20.8521 23.2552 21.1961 23.9076 21.704 24.4206C22.212 24.9336 22.8609 25.2841 23.5685 25.4275C24.276 25.5709 25.0102 25.5008 25.6779 25.2261C26.3455 24.9514 26.9164 24.4844 27.3181 23.8846C27.7198 23.2847 27.9341 22.579 27.9338 21.857C27.9384 20.8964 27.5613 19.9732 26.8854 19.2905C26.2095 18.6079 25.2901 18.2216 24.3295 18.2166Z" fill="#3AAA35"/>
<path opacity="0.85" d="M39.2269 18.2166C38.505 18.2092 37.7972 18.4165 37.1934 18.8122C36.5895 19.2079 36.1169 19.7741 35.8356 20.439C35.5542 21.1038 35.4768 21.8373 35.6132 22.5462C35.7496 23.2552 36.0936 23.9076 36.6015 24.4206C37.1094 24.9336 37.7584 25.2841 38.4659 25.4275C39.1735 25.5709 39.9077 25.5008 40.5753 25.2261C41.2429 24.9514 41.8139 24.4844 42.2155 23.8846C42.6172 23.2847 42.8315 22.579 42.8313 21.857C42.8355 20.8965 42.4583 19.9735 41.7824 19.291C41.1066 18.6084 40.1875 18.222 39.2269 18.2166Z" fill="#3AAA35"/>
<path opacity="0.75" d="M31.7616 18.2166C31.04 18.2092 30.3325 18.4163 29.7288 18.8117C29.1251 19.2071 28.6525 19.7729 28.3709 20.4373C28.0894 21.1017 28.0115 21.8348 28.1473 22.5436C28.2831 23.2523 28.6264 23.9047 29.1336 24.418C29.6409 24.9313 30.2891 25.2824 30.9962 25.4266C31.7033 25.5709 32.4373 25.5018 33.105 25.2282C33.7727 24.9545 34.3441 24.4887 34.7467 23.8898C35.1492 23.2909 35.3648 22.5859 35.366 21.8642C35.369 21.388 35.2782 20.9158 35.0986 20.4747C34.9191 20.0336 34.6544 19.6323 34.3197 19.2935C33.9849 18.9547 33.5867 18.6853 33.1478 18.5005C32.7089 18.3157 32.2378 18.2193 31.7616 18.2166Z" fill="#3AAA35"/>
<path d="M57.6335 11.3157H51.372V8.88784H54.7212C54.7949 8.88717 54.8656 8.85828 54.9187 8.8071C54.9444 8.78133 54.9647 8.75074 54.9786 8.7171C54.9925 8.68345 54.9995 8.64741 54.9994 8.61102V6.00435C54.9991 5.93092 54.9698 5.86058 54.918 5.80852C54.8662 5.75646 54.7961 5.72685 54.7226 5.7261H51.3749V3.6745H57.2601C57.3335 3.6745 57.4039 3.64533 57.4558 3.59342C57.5078 3.54151 57.5369 3.4711 57.5369 3.39768V0.785244C57.5371 0.748628 57.5301 0.712332 57.5162 0.678438C57.5024 0.644543 57.482 0.613716 57.4562 0.587724C57.4031 0.536544 57.3324 0.507652 57.2587 0.506987L47.909 0.501221C47.8352 0.501221 47.7644 0.530536 47.7122 0.582719C47.66 0.634902 47.6307 0.705678 47.6307 0.779476L47.6206 14.2007C47.6206 14.2372 47.6278 14.2734 47.6418 14.3071C47.6558 14.3409 47.6763 14.3716 47.7021 14.3974C47.7279 14.4233 47.7586 14.4438 47.7924 14.4577C47.8261 14.4717 47.8623 14.4789 47.8989 14.4789L57.6335 14.4876C57.7073 14.4876 57.7781 14.4583 57.8303 14.4061C57.8825 14.3539 57.9118 14.2831 57.9118 14.2093V11.594C57.9118 11.5202 57.8825 11.4494 57.8303 11.3972C57.7781 11.345 57.7073 11.3157 57.6335 11.3157Z" fill="white"/>
<path d="M25.046 0.501221H21.8943C21.8208 0.501972 21.7504 0.53153 21.6984 0.583551C21.6464 0.635572 21.6168 0.705911 21.6161 0.779476V7.78202L18.5538 0.669905C18.5326 0.619822 18.497 0.577112 18.4517 0.547111C18.4063 0.517111 18.353 0.501149 18.2986 0.501221H14.2531C14.1793 0.501221 14.1085 0.530536 14.0564 0.582719C14.0042 0.634903 13.9749 0.705678 13.9749 0.779476V14.2079C13.9752 14.2816 14.0047 14.3521 14.0568 14.4042C14.1089 14.4563 14.1794 14.4857 14.2531 14.4861H17.448C17.5216 14.4861 17.5921 14.457 17.6443 14.4051C17.6964 14.3533 17.7259 14.2829 17.7263 14.2093V6.27108L21.2528 14.3189C21.2744 14.3682 21.3099 14.4102 21.3549 14.4396C21.4 14.469 21.4527 14.4847 21.5065 14.4847H25.046C25.1198 14.4847 25.1906 14.4554 25.2428 14.4032C25.2949 14.351 25.3243 14.2802 25.3243 14.2064V0.779476C25.3243 0.705678 25.2949 0.634903 25.2428 0.582719C25.1906 0.530536 25.1198 0.501221 25.046 0.501221Z" fill="white"/>
<path d="M11.2455 0.501343H7.69597C7.66037 0.501317 7.62619 0.515301 7.60081 0.54027C7.58825 0.552693 7.57833 0.567524 7.57164 0.583875C7.56495 0.600226 7.56163 0.617759 7.56189 0.635424V9.25705C7.54895 9.70327 7.36259 10.1269 7.04239 10.4379C6.72218 10.749 6.29335 10.923 5.84694 10.923C5.40052 10.923 4.97168 10.749 4.65148 10.4379C4.33128 10.1269 4.14492 9.70327 4.13198 9.25705V2.18242V0.633983C4.13198 0.598805 4.11801 0.565066 4.09313 0.540191C4.06826 0.515316 4.03452 0.501343 3.99934 0.501343H0.44977C0.41417 0.501317 0.379989 0.515301 0.354615 0.54027C0.342054 0.552693 0.332131 0.567524 0.325442 0.583875C0.318753 0.600226 0.315435 0.617759 0.315687 0.635424V9.25705C0.339122 10.7086 0.932184 12.0927 1.96694 13.1109C3.00171 14.1291 4.39523 14.6997 5.84694 14.6997C7.29864 14.6997 8.69216 14.1291 9.72692 13.1109C10.7617 12.0927 11.3547 10.7086 11.3782 9.25705V1.67925V0.635424C11.3784 0.617884 11.3751 0.600482 11.3685 0.584223C11.3619 0.567963 11.3522 0.553169 11.3398 0.540699C11.3275 0.52823 11.3128 0.51833 11.2966 0.511575C11.2804 0.504819 11.2631 0.501342 11.2455 0.501343Z" fill="white"/>
<path d="M31.675 0.784115C31.6746 0.710433 31.6452 0.639879 31.5931 0.587778C31.541 0.535677 31.4704 0.506238 31.3967 0.505859H28.1989C28.1254 0.50624 28.055 0.535724 28.0031 0.587866C27.9512 0.640008 27.9221 0.710566 27.9221 0.784115V14.1995C27.9221 14.2361 27.9293 14.2723 27.9433 14.306C27.9573 14.3398 27.9778 14.3704 28.0036 14.3963C28.0295 14.4221 28.0601 14.4426 28.0939 14.4566C28.1277 14.4706 28.1638 14.4778 28.2004 14.4778H31.3996C31.4732 14.477 31.5435 14.4475 31.5955 14.3955C31.6476 14.3434 31.6771 14.2731 31.6779 14.1995L31.675 0.784115Z" fill="white"/>
<path d="M44.0251 6.91431C44.5697 6.40715 44.9489 5.74771 45.1132 5.02193C45.2776 4.29614 45.2195 3.53768 44.9466 2.84538C44.6737 2.15307 44.1985 1.55904 43.5831 1.14069C42.9676 0.722341 42.2404 0.49908 41.4963 0.500003C41.4689 0.500003 41.4415 0.500003 41.4155 0.500003H39.6768H34.5543C34.4807 0.500384 34.4103 0.529868 34.3585 0.582009C34.3066 0.634151 34.2775 0.704709 34.2775 0.778258L34.2703 14.1966C34.2703 14.2704 34.2996 14.3411 34.3518 14.3933C34.4039 14.4455 34.4747 14.4748 34.5485 14.4748H41.4285C42.3093 14.4746 43.1679 14.1994 43.8846 13.6875C44.6013 13.1756 45.1402 12.4526 45.4261 11.6195C45.7119 10.7865 45.7304 9.88494 45.479 9.04085C45.2276 8.19677 44.7188 7.4523 44.0237 6.91143L44.0251 6.91431ZM37.9438 3.29842H40.7437C41.0083 3.29842 41.2621 3.40354 41.4492 3.59064C41.6363 3.77774 41.7414 4.03151 41.7414 4.29611C41.7414 4.56071 41.6363 4.81448 41.4492 5.00158C41.2621 5.18868 41.0083 5.2938 40.7437 5.2938H37.9438V3.29842ZM40.7004 11.1444H37.9438V8.22774H40.7004C41.0793 8.23966 41.4386 8.39852 41.7024 8.67071C41.9661 8.9429 42.1136 9.30704 42.1136 9.68607C42.1136 10.0651 41.9661 10.4292 41.7024 10.7014C41.4386 10.9736 41.0793 11.1325 40.7004 11.1444Z" fill="white"/>
<path d="M70.6079 0.603583C70.5824 0.577444 70.5519 0.556701 70.5182 0.542584C70.4845 0.528466 70.4484 0.521264 70.4119 0.521405L59.916 0.501221C59.8422 0.501221 59.7714 0.530536 59.7192 0.582719C59.667 0.634902 59.6377 0.705678 59.6377 0.779476V3.37461C59.6375 3.41109 59.6445 3.44724 59.6584 3.48099C59.6722 3.51474 59.6925 3.54543 59.7183 3.57128C59.744 3.59714 59.7746 3.61766 59.8083 3.63166C59.8419 3.64566 59.878 3.65287 59.9145 3.65287L63.2089 3.66008L63.1916 14.2007C63.1915 14.2372 63.1987 14.2734 63.2128 14.307C63.2269 14.3407 63.2476 14.3712 63.2738 14.3967C63.3257 14.449 63.3962 14.4786 63.4699 14.4789H66.7859C66.8223 14.4789 66.8584 14.4717 66.8921 14.4577C66.9258 14.4437 66.9564 14.4232 66.9821 14.3973C67.0078 14.3715 67.0282 14.3408 67.042 14.307C67.0558 14.2733 67.0629 14.2371 67.0627 14.2007L67.08 3.65431H70.4061C70.4426 3.6545 70.4787 3.64748 70.5125 3.63366C70.5462 3.61983 70.5769 3.59947 70.6028 3.57375C70.6286 3.54802 70.6491 3.51744 70.6631 3.48376C70.6771 3.45009 70.6843 3.41397 70.6843 3.3775V0.789569C70.6831 0.720188 70.6558 0.653809 70.6079 0.603583Z" fill="white"/>
</svg>
