<svg width="40" height="40" viewBox="0 0 40 40" fill="none" xmlns="http://www.w3.org/2000/svg">
<g clip-path="url(#clip0_6628_32915)">
<path d="M38.1697 19.7441L39.3911 18.522C39.5942 18.3188 39.9418 18.4508 39.9598 18.7376C40.3071 24.2681 38.3693 29.9154 34.1449 34.1418C26.4254 41.8649 13.9634 41.9514 6.13772 34.4013C-1.92903 26.6186 -2.06287 13.8271 5.84646 5.8842C10.0738 1.63897 15.7306 -0.30888 21.2703 0.0393697C21.557 0.0573978 21.6892 0.405084 21.486 0.608384L20.2646 1.83036L22.1493 3.71599L24.9104 0.953656C25.0826 0.781342 25.3349 0.717278 25.569 0.784803C28.7089 1.69112 31.6707 3.38151 34.145 5.857C36.6193 8.3325 38.3089 11.2956 39.2148 14.4371C39.2823 14.6713 39.2182 14.9237 39.046 15.096L36.285 17.8584L38.1697 19.7441Z" fill="#F7D108"/>
<path d="M33.0309 26.8528L34.938 23.601C35.454 22.7211 36.0813 21.9092 36.8024 21.188L39.2675 18.7222C39.1935 17.6229 39.0268 16.5287 38.7671 15.4523L34.9176 19.3027C34.0364 20.1842 33.2697 21.1765 32.639 22.252L30.7156 25.5315C30.7045 25.5504 30.6938 25.5699 30.6836 25.5894C30.1213 26.6671 29.3957 27.654 28.5271 28.5228C23.8504 33.2007 16.241 33.2007 11.5643 28.5228C6.88758 23.8449 6.88758 16.2334 11.5643 11.5556C12.433 10.6866 13.4197 9.96082 14.4971 9.39844C14.5166 9.3883 14.5359 9.3776 14.5548 9.3665L17.8336 7.44264C18.9087 6.81171 19.9007 6.04487 20.782 5.16337L24.7485 1.19584C23.6901 0.921614 22.6134 0.73783 21.5302 0.644409L18.8973 3.27813C18.1763 3.99935 17.3646 4.62674 16.4849 5.14293L13.2338 7.05053C11.9276 7.73634 10.7319 8.6176 9.67949 9.67034C3.96361 15.3878 3.96361 24.6906 9.67949 30.4081C15.3954 36.1255 24.6959 36.1255 30.4118 30.4081C31.4642 29.3554 32.3454 28.1593 33.0309 26.8528Z" fill="#F8F6F6"/>
<path d="M18.9318 5.16396C18.0505 6.04546 17.0585 6.8123 15.9833 7.44323L12.7046 9.36709C12.6857 9.37819 12.6664 9.38881 12.6469 9.39903C11.5695 9.96149 10.5828 10.6873 9.71407 11.5562C5.03737 16.234 5.03737 23.8455 9.71407 28.5234C12.2874 31.0974 15.7486 32.2545 19.1207 31.9958C16.3645 31.7844 13.6678 30.6274 11.5645 28.5234C6.8878 23.8455 6.8878 16.2341 11.5645 11.5562C12.4332 10.6872 13.4199 9.96141 14.4973 9.39903C14.5168 9.38881 14.5361 9.37819 14.555 9.36709L17.8338 7.44323C18.9089 6.8123 19.901 6.04546 20.7822 5.16396L24.7487 1.19643C24.2547 1.06841 23.7565 0.960907 23.2557 0.872314L18.9318 5.16396Z" fill="#F8F6F6"/>
<path d="M34.9521 21.1881C34.231 21.9093 33.6038 22.7212 33.0877 23.6011L31.1806 26.8529C30.495 28.1595 29.6139 29.3555 28.5615 30.4082C25.9385 33.0319 22.5605 34.4506 19.1206 34.6662C23.1767 34.9205 27.3191 33.5018 30.4119 30.4082C31.4643 29.3555 32.3454 28.1594 33.031 26.8529L34.9381 23.6011C35.4541 22.7212 36.0813 21.9093 36.8024 21.1881L39.2676 18.7223C39.2305 18.1727 39.1703 17.6243 39.087 17.0787L34.9521 21.1881Z" fill="#F8F6F6"/>
<path d="M32.3062 5.90083C34.7368 8.33201 37.1016 12.952 37.9474 16.2731L39.0824 15.1378C39.2546 14.9655 39.3187 14.7132 39.2511 14.4791C38.3453 11.3383 36.6557 8.37579 34.1814 5.90083C31.7071 3.42579 28.7453 1.73578 25.6054 0.829735C25.3713 0.762225 25.119 0.826275 24.9468 0.998552L24.7803 1.16512C27.5288 2.12571 30.1096 3.70372 32.3062 5.90083Z" fill="#F7D108"/>
<path d="M19.4312 0.0842626C19.6848 0.100195 21.3544 0.403147 20.5059 1.66967L21.5221 0.653153C21.7254 0.449898 21.5932 0.102367 21.3065 0.0842626C20.573 0.0381559 19.8375 0.0335694 19.1035 0.0679281C19.2127 0.0729974 19.322 0.0773426 19.4312 0.0842626Z" fill="#F7D108"/>
<path d="M39.9963 18.7781C39.9782 18.4913 39.6306 18.3595 39.4276 18.5626L38.2062 19.7844L38.1575 19.7357C38.2365 24.954 36.2869 30.1972 32.3062 34.179C28.6411 37.845 23.9069 39.7886 19.1074 40.0125C24.5316 40.2659 30.0392 38.3222 34.1814 34.179C38.4058 29.9535 40.3436 24.3075 39.9963 18.7781Z" fill="#F7D108"/>
<path d="M9.46373 18.356C9.46373 8.65436 17.6277 0.881032 27.4355 1.41304C14.3222 -3.75247 0 5.87859 0 20.01C0 31.0502 8.9826 40.0001 20.0631 40.0001C26.289 40.0001 31.8524 37.1744 35.5324 32.7401C24.2673 39.7816 9.46373 31.7206 9.46373 18.356Z" fill="black" fill-opacity="0.04"/>
</g>
<defs>
<clipPath id="clip0_6628_32915">
<rect width="40" height="40" fill="white"/>
</clipPath>
</defs>
</svg>
